<?xml version="1.0" standalone="no"?>
<!DOCTYPE svg PUBLIC "-//W3C//DTD SVG 20010904//EN"
 "http://www.w3.org/TR/2001/REC-SVG-20010904/DTD/svg10.dtd">
<svg version="1.0" xmlns="http://www.w3.org/2000/svg"
 width="648.000000pt" height="360.000000pt" viewBox="0 0 648.000000 360.000000"
 preserveAspectRatio="xMidYMid meet">

<g transform="translate(0.000000,360.000000) scale(0.100000,-0.100000)"
fill="#0000008a" stroke="none">
<path d="M271 3393 c-13 -115 -26 -221 -29 -237 l-5 -28 -66 6 c-36 4 -91 9
-121 13 -30 3 -53 3 -50 0 7 -7 242 -38 247 -33 3 2 15 96 28 207 13 112 27
221 30 242 3 20 2 37 -3 37 -4 0 -18 -93 -31 -207z"/>
<path d="M655 3589 c-7 -21 -65 -298 -65 -313 0 -16 139 -51 150 -39 4 5 22
78 39 163 18 85 35 165 38 178 5 20 2 22 -28 21 -24 -1 -27 -3 -11 -6 14 -3
22 -12 22 -25 0 -18 -4 -19 -37 -13 -25 4 -35 3 -28 -3 6 -6 19 -12 30 -14 11
-2 21 -12 23 -22 4 -17 -1 -18 -32 -13 -20 3 -36 2 -36 -4 0 -5 8 -9 18 -9 27
0 46 -16 39 -33 -5 -13 -12 -14 -42 -6 -20 6 -42 8 -48 6 -7 -3 10 -10 36 -17
35 -9 47 -17 45 -29 -2 -12 -12 -15 -38 -13 -27 2 -31 0 -20 -7 8 -6 23 -11
33 -11 12 0 17 -6 15 -17 -3 -14 -12 -17 -37 -15 -20 1 -30 -2 -26 -8 3 -5 15
-10 25 -10 23 0 36 -18 22 -32 -8 -8 -23 -8 -51 0 -23 5 -43 6 -46 2 -3 -5 15
-12 40 -16 43 -6 64 -19 51 -31 -4 -4 -136 16 -136 21 0 0 16 73 34 161 19 88
33 161 31 164 -3 2 -7 -2 -10 -10z"/>
<path d="M1160 3582 c0 -13 11 -33 23 -44 22 -19 23 -24 11 -48 -12 -23 -9
-48 22 -201 20 -96 43 -182 52 -191 8 -10 29 -18 45 -18 61 0 791 151 809 167
10 9 18 30 18 46 0 43 -53 307 -61 307 -4 0 -5 -8 -2 -19 4 -14 -3 -20 -27
-25 -50 -10 -60 -7 -60 13 0 11 -4 23 -10 26 -6 4 -7 -5 -4 -23 5 -26 3 -30
-26 -36 -51 -10 -60 -7 -60 17 0 12 -5 29 -10 37 -7 11 -8 3 -4 -26 6 -41 6
-41 -30 -48 -43 -8 -56 -2 -57 27 0 12 -4 31 -9 42 -6 13 -7 3 -4 -31 l6 -51
-37 -7 c-20 -4 -39 -5 -42 -2 -3 2 -11 28 -18 58 -7 29 -13 44 -14 33 0 -11 4
-38 9 -60 5 -22 8 -40 7 -41 -1 -1 -21 -5 -44 -9 l-41 -6 -11 51 c-15 69 -15
70 17 71 23 2 23 2 5 6 -12 2 -104 -12 -203 -32 -99 -20 -190 -33 -201 -30
-11 4 -27 21 -34 38 -13 28 -14 29 -15 9z m419 -59 c6 -31 10 -57 8 -59 -1 -1
-21 -5 -43 -9 l-42 -6 -6 38 c-4 21 -10 48 -13 60 -4 18 0 22 24 26 61 9 60
10 72 -50z m-99 -19 c7 -30 10 -57 8 -58 -11 -10 -77 -15 -83 -7 -3 6 -9 33
-12 60 -5 46 -4 50 18 54 56 10 57 9 69 -49z m604 29 c11 -40 28 -144 24 -148
-9 -10 -853 -174 -859 -167 -14 15 -36 154 -25 158 9 3 823 169 848 173 4 1 9
-7 12 -16z m-711 -7 c3 -7 8 -34 12 -58 l7 -45 -38 -6 c-21 -4 -42 -3 -46 1
-4 4 -10 30 -14 59 -6 48 -5 52 17 56 45 8 57 7 62 -7z m-99 -14 c3 -5 8 -31
11 -59 l7 -50 -38 -6 c-25 -4 -41 -2 -46 6 -14 21 -9 80 9 99 17 19 48 24 57
10z m850 -164 c16 -61 -6 -108 -49 -108 -18 0 -23 8 -32 55 l-10 55 31 9 c47
14 53 13 60 -11z m-100 -15 c2 -10 7 -37 11 -59 6 -37 4 -42 -17 -48 -56 -15
-62 -10 -73 67 l-7 46 33 4 c19 2 37 5 41 5 4 1 9 -6 12 -15z m-95 -40 c17
-59 14 -80 -11 -87 -56 -15 -62 -10 -73 67 l-7 46 33 4 c19 2 37 5 41 5 4 1
12 -15 17 -35z m-92 -39 c10 -54 9 -56 -14 -65 -50 -19 -61 -12 -72 41 -15 68
-15 68 17 73 59 9 58 10 69 -49z m-98 -21 c6 -31 10 -58 8 -59 -1 -2 -21 -6
-44 -10 l-40 -6 -9 48 c-11 69 -12 67 16 75 53 15 57 12 69 -48z m-99 -19 c7
-30 10 -57 8 -59 -2 -2 -22 -7 -45 -11 l-41 -6 -7 48 c-9 68 -9 68 17 76 51
14 56 10 68 -48z m-107 22 c3 -7 8 -34 12 -58 l7 -45 -37 -7 c-21 -4 -41 -4
-46 1 -4 4 -11 31 -15 60 -6 48 -5 52 17 56 45 8 57 7 62 -7z m-89 -64 c5 -29
7 -54 5 -56 -2 -2 -20 -7 -40 -11 -41 -8 -43 -4 -54 68 -7 42 -5 46 16 50 55
11 64 5 73 -51z m-97 -17 c5 -30 7 -57 5 -60 -12 -12 -60 -4 -75 13 -8 9 -18
34 -22 54 -6 33 -5 37 17 41 62 12 64 10 75 -48z"/>
<path d="M1725 3424 c-115 -23 -232 -43 -260 -44 -44 -1 -56 -6 -94 -40 l-43
-40 27 -10 c39 -15 71 -12 123 10 26 10 151 40 277 65 127 26 234 50 238 55 5
4 6 17 2 29 -9 28 -21 27 -270 -25z m255 17 c0 -16 -26 -24 -212 -60 -117 -23
-223 -45 -235 -48 -18 -4 -23 -1 -23 15 0 17 23 24 223 65 264 54 247 52 247
28z m-490 -92 c7 -11 10 -22 8 -24 -18 -15 -55 -25 -94 -25 l-48 0 34 35 c40
41 83 47 100 14z"/>
<path d="M1224 3592 c5 -8 66 -4 66 4 0 2 -16 4 -36 4 -19 0 -33 -4 -30 -8z"/>
<path d="M2333 3580 c-6 -14 -10 -26 -8 -28 1 -1 22 2 46 7 39 9 46 7 73 -15
26 -22 30 -24 38 -10 5 9 7 29 5 44 l-4 27 -8 -32 -7 -33 -26 21 c-20 15 -35
19 -58 14 -26 -4 -33 -2 -37 12 -3 15 -6 14 -14 -7z"/>
<path d="M2745 3575 c22 -104 21 -103 83 -115 31 -7 84 -18 116 -25 33 -8 63
-12 67 -9 4 2 4 17 -1 32 -5 15 -16 53 -25 86 -9 32 -18 56 -21 53 -3 -2 4
-37 15 -78 12 -40 19 -74 17 -77 -3 -2 -52 6 -110 18 l-105 22 -11 47 c-13 53
-36 95 -25 46z"/>
<path d="M3081 3555 l-45 -43 29 -108 c15 -60 32 -116 36 -125 5 -11 43 -23
116 -38 59 -11 113 -21 119 -21 7 0 52 36 102 79 l89 80 -29 108 c-16 59 -31
109 -34 112 -9 10 -3 -27 22 -121 15 -54 25 -100 23 -101 -2 -1 -39 -33 -82
-71 -43 -38 -79 -67 -81 -65 -6 7 -56 196 -56 212 0 8 33 43 74 78 41 35 72
66 70 68 -2 3 -20 -9 -38 -25 -19 -16 -55 -46 -79 -66 l-44 -38 -107 22 -107
21 30 30 30 31 25 -27 c20 -21 34 -27 68 -27 54 0 132 37 137 65 3 17 0 16
-24 -7 -47 -47 -131 -62 -165 -28 -31 31 -24 39 38 43 l57 3 -65 1 c-64 1 -66
0 -109 -42z m118 -83 l74 -17 29 -109 c15 -60 27 -111 25 -112 -1 -1 -50 7
-107 20 l-105 22 -27 94 c-15 52 -28 103 -28 113 0 20 3 20 139 -11z"/>
<path d="M3510 3594 c0 -5 4 -15 9 -22 6 -10 13 -8 32 7 13 11 19 20 12 21 -6
0 -15 -5 -18 -10 -5 -8 -11 -7 -21 1 -8 6 -14 8 -14 3z"/>
<path d="M4008 3593 c6 -2 18 -2 25 0 6 3 1 5 -13 5 -14 0 -19 -2 -12 -5z"/>
<path d="M4115 3580 c24 -27 45 -25 45 3 0 17 -2 19 -10 7 -7 -12 -12 -12 -22
-2 -20 20 -32 13 -13 -8z"/>
<path d="M4393 3585 c4 -11 22 -83 41 -160 20 -77 39 -150 42 -162 3 -12 25
-33 48 -47 42 -24 43 -25 107 -9 35 9 69 20 74 26 7 6 3 7 -10 4 -62 -18 -116
-29 -121 -25 -2 3 -25 86 -50 184 -51 204 -53 209 -60 202 -3 -3 15 -84 40
-180 26 -97 46 -180 46 -187 0 -8 -8 -7 -28 3 -26 14 -32 28 -71 183 -24 92
-48 173 -53 178 -7 7 -8 3 -5 -10z"/>
<path d="M4841 3590 c1 -8 5 -26 9 -40 l8 -25 1 25 c0 14 -4 32 -9 40 -9 13
-10 13 -9 0z"/>
<path d="M4910 3583 c0 -12 5 -25 10 -28 13 -8 13 15 0 35 -8 12 -10 11 -10
-7z"/>
<path d="M5320 3598 c0 -3 13 -57 30 -119 34 -129 35 -139 17 -139 -22 0 -119
-31 -114 -36 4 -5 124 23 138 32 8 5 -50 245 -62 259 -5 5 -9 6 -9 3z"/>
<path d="M5597 3552 c28 -26 112 -104 186 -174 74 -71 139 -128 144 -128 5 0
30 24 55 53 l45 52 -129 123 c-72 67 -134 122 -138 122 -5 0 34 -42 86 -93
l95 -92 -57 -33 -57 -33 -102 98 c-56 54 -103 103 -104 110 0 7 11 19 27 27
15 9 20 15 12 16 -9 0 -26 -7 -38 -16 -21 -15 -25 -15 -41 0 -10 9 -22 16 -27
16 -5 -1 14 -22 43 -48z m378 -168 c14 -9 25 -21 25 -26 0 -5 -16 -30 -37 -54
l-36 -45 -39 38 c-21 20 -38 40 -38 43 0 5 88 59 98 60 1 0 14 -7 27 -16z"/>
<path d="M6096 3523 c-4 -43 -10 -86 -13 -97 -3 -11 -1 -16 5 -12 5 3 13 39
17 78 3 40 9 81 11 91 3 9 1 17 -4 17 -5 0 -13 -35 -16 -77z"/>
<path d="M6170 3589 c0 -8 -9 -86 -20 -174 -21 -171 -22 -163 27 -221 15 -18
37 -24 128 -33 61 -7 125 -14 144 -18 21 -3 32 -2 28 4 -3 5 -65 16 -137 23
-72 7 -132 16 -134 19 -2 3 7 89 20 191 13 102 23 194 23 205 -1 52 -19 -41
-34 -175 -8 -80 -18 -158 -21 -174 l-6 -28 -21 21 -21 21 18 170 c11 94 16
173 12 177 -3 3 -6 0 -6 -8z"/>
<path d="M5765 3490 c38 -38 71 -67 74 -64 7 6 -120 133 -134 134 -5 0 22 -31
60 -70z"/>
<path d="M4970 3516 c-47 -13 -124 -34 -172 -46 -61 -16 -88 -28 -88 -38 0 -8
14 -68 32 -134 31 -119 32 -119 74 -144 l43 -25 177 45 c97 24 178 47 181 49
2 3 -11 62 -29 133 -32 125 -34 129 -73 156 -22 15 -44 27 -50 27 -5 0 -48
-11 -95 -23z m125 -8 c14 -6 25 -14 25 -17 0 -3 -73 -25 -162 -48 -151 -39
-163 -41 -190 -27 -17 9 -27 19 -23 22 8 9 272 79 302 81 12 0 34 -4 48 -11z
m81 -158 l31 -118 -161 -42 c-89 -23 -165 -43 -170 -43 -9 -2 -79 233 -72 240
6 7 331 89 336 85 3 -2 19 -57 36 -122z m-360 -74 c31 -118 29 -131 -13 -98
-15 12 -29 46 -47 119 -33 128 -33 127 2 109 26 -13 32 -27 58 -130z"/>
<path d="M3385 3460 c-16 -17 -24 -30 -19 -30 13 0 59 48 52 55 -2 3 -17 -9
-33 -25z"/>
<path d="M3400 3389 c-19 -16 -30 -29 -25 -29 14 0 71 47 65 53 -3 3 -21 -8
-40 -24z"/>
<path d="M2646 3367 c-33 -50 21 -105 70 -72 26 17 33 62 12 83 -20 20 -66 14
-82 -11z m78 -9 c16 -26 -4 -53 -40 -53 -23 0 -30 5 -32 23 -7 47 47 69 72 30z"/>
<path d="M2317 3310 c-3 -11 -1 -20 4 -20 5 0 9 9 9 20 0 11 -2 20 -4 20 -2 0
-6 -9 -9 -20z"/>
<path d="M5555 3290 c-23 -25 -13 -67 20 -82 53 -24 100 46 57 85 -25 23 -55
21 -77 -3z m69 -6 c29 -29 12 -64 -31 -64 -19 0 -43 25 -43 44 0 10 32 36 45
36 7 0 21 -7 29 -16z"/>
<path d="M2230 3270 c8 -5 22 -10 30 -10 13 0 13 1 0 10 -8 5 -22 10 -30 10
-13 0 -13 -1 0 -10z"/>
<path d="M2355 3240 c3 -5 16 -10 28 -9 21 0 21 1 2 9 -28 12 -37 12 -30 0z"/>
<path d="M2290 3200 c0 -11 2 -20 4 -20 2 0 6 9 9 20 3 11 1 20 -4 20 -5 0 -9
-9 -9 -20z"/>
<path d="M2697 3133 c-4 -3 -7 -14 -7 -24 0 -15 -6 -17 -27 -14 -90 16 -149
22 -154 17 -6 -6 -69 -428 -69 -459 0 -7 12 -13 28 -13 60 0 58 -10 -33 -159
-48 -79 -85 -145 -82 -147 3 -3 46 63 96 145 l91 150 38 -6 c20 -3 38 -7 40
-8 2 -2 -6 -67 -17 -145 -21 -144 -26 -216 -11 -150 5 19 16 93 26 163 l17
128 41 -3 41 -3 33 -120 c57 -206 63 -227 68 -223 4 5 -68 286 -83 326 -5 12
1 14 40 8 26 -4 47 -5 47 -3 0 3 13 96 29 208 16 112 31 217 33 234 l3 30 -80
12 c-44 6 -86 12 -93 12 -8 1 -10 9 -6 26 6 25 3 31 -9 18z m23 -59 c74 -9
139 -21 143 -24 8 -7 -48 -428 -58 -439 -7 -6 -344 40 -349 48 -2 4 57 419 63
440 0 2 16 1 34 -2 17 -2 93 -13 167 -23z"/>
<path d="M3485 3120 c-37 -41 11 -104 61 -81 50 23 34 101 -21 101 -12 0 -30
-9 -40 -20z m67 -7 c24 -21 23 -38 -4 -57 -39 -28 -84 20 -52 55 21 23 32 24
56 2z"/>
<path d="M3865 3122 c-53 -18 -95 -72 -95 -122 0 -14 9 -42 20 -63 24 -45 25
-78 4 -123 -18 -37 -16 -36 -184 -75 -52 -12 -108 -28 -123 -36 -27 -13 -66
-77 -55 -88 3 -3 59 8 124 24 66 16 121 27 123 25 2 -2 -31 -48 -73 -103 -42
-55 -76 -103 -76 -106 0 -13 78 -3 102 13 15 10 63 66 107 124 44 59 90 109
101 113 44 14 98 -5 131 -46 80 -101 229 -55 229 71 0 123 -151 172 -227 74
-25 -33 -30 -36 -66 -31 -21 3 -40 7 -42 9 -2 2 0 18 3 37 8 36 9 37 84 71 85
38 99 137 30 203 -28 27 -83 40 -117 29z m111 -46 c56 -56 44 -139 -25 -171
-20 -10 -47 -23 -60 -29 -16 -7 -28 -25 -35 -51 -9 -30 -17 -41 -35 -43 -20
-3 -23 -1 -16 15 24 58 25 94 5 133 -31 61 -27 105 14 146 28 28 42 34 76 34
34 0 48 -6 76 -34z m164 -256 c91 -65 46 -200 -67 -200 -42 0 -50 4 -87 45
-51 55 -97 68 -174 48 -60 -16 -72 -12 -72 21 0 31 42 39 143 30 73 -6 74 -6
96 22 44 57 110 70 161 34z m-414 -95 c4 -14 5 -28 3 -30 -7 -7 -272 -65 -276
-61 -8 8 17 46 40 58 20 11 185 55 214 57 7 1 15 -10 19 -24z m58 -47 c-4 -7
-39 -54 -77 -105 -52 -69 -77 -95 -103 -103 -19 -7 -38 -10 -44 -8 -15 5 146
212 172 219 40 12 60 10 52 -3z"/>
<path d="M3845 3050 c-43 -48 -10 -120 55 -120 23 0 43 7 53 18 23 25 22 85
-1 105 -26 24 -85 22 -107 -3z m97 -7 c39 -35 9 -103 -46 -103 -28 0 -56 29
-56 58 0 54 62 81 102 45z"/>
<path d="M4021 2774 c-36 -45 -22 -93 33 -114 70 -26 129 67 76 120 -30 30
-83 27 -109 -6z m94 2 c11 -8 18 -26 18 -46 0 -53 -61 -81 -97 -44 -52 51 20
133 79 90z"/>
<path d="M4360 3090 c0 -11 4 -20 9 -20 5 0 7 9 4 20 -3 11 -7 20 -9 20 -2 0
-4 -9 -4 -20z"/>
<path d="M4430 3050 c-13 -8 -13 -10 2 -10 9 0 20 5 23 10 8 13 -5 13 -25 0z"/>
<path d="M5715 3033 c-11 -2 -44 -9 -73 -14 -46 -9 -57 -17 -83 -52 -25 -35
-30 -48 -25 -79 l6 -36 -50 -7 c-64 -9 -100 -37 -100 -77 0 -53 71 -423 84
-436 10 -10 69 -3 316 43 167 30 308 59 314 65 7 7 -3 83 -29 227 -33 182 -43
222 -62 241 -23 23 -71 28 -108 11 -14 -6 -6 -7 27 -3 42 4 51 2 73 -20 14
-14 25 -36 25 -50 0 -22 -6 -25 -70 -37 -39 -7 -72 -10 -75 -7 -3 3 -13 45
-22 93 -17 84 -19 88 -59 116 -42 29 -50 31 -89 22z m40 -34 c4 -11 4 -23 1
-26 -4 -5 -140 -33 -142 -29 -1 0 -4 13 -8 28 -6 25 -4 27 47 36 82 15 95 14
102 -9z m55 -9 c23 -16 29 -31 40 -97 6 -42 14 -82 17 -89 3 -10 -46 -28 -55
-20 -3 3 -42 206 -42 218 0 12 10 9 40 -12z m-199 -125 c21 -113 19 -124 -22
-125 -12 0 -20 21 -32 91 -16 90 -16 91 5 120 12 16 23 27 25 25 2 -2 13 -52
24 -111z m157 58 c-3 -25 -8 -29 -55 -37 -29 -5 -53 -12 -53 -16 0 -3 25 -2
55 3 30 6 57 8 60 5 3 -2 9 -25 14 -51 l8 -46 -51 -10 c-107 -21 -98 -26 -117
69 -9 47 -16 86 -15 87 4 4 103 21 129 22 25 1 28 -2 25 -26z m-223 -105 c3
-13 7 -36 8 -53 2 -29 1 -29 -67 -42 -77 -14 -86 -10 -86 38 0 32 28 59 72 69
55 13 67 11 73 -12z m495 -37 c0 -24 -5 -30 -27 -35 -123 -25 -585 -107 -588
-104 -2 2 -6 15 -10 29 l-6 25 303 56 c167 31 309 57 316 57 7 1 12 -11 12
-28z m35 -190 c13 -74 22 -138 19 -143 -3 -4 -15 -8 -28 -8 -21 0 -24 8 -41
108 -10 59 -21 111 -25 115 -5 6 -498 -78 -507 -86 0 -1 7 -47 17 -102 11 -55
19 -107 20 -116 0 -20 -36 -31 -48 -15 -10 12 -58 274 -51 280 10 7 614 113
616 107 2 -3 14 -66 28 -140z m-81 42 c9 -33 37 -195 34 -199 -2 -1 -110 -23
-241 -47 -235 -43 -238 -43 -242 -23 -13 60 -36 198 -33 201 5 5 421 83 450
84 17 1 28 -5 32 -16z"/>
<path d="M5761 2555 c-183 -34 -223 -45 -163 -45 25 0 32 -4 32 -20 0 -11 5
-20 10 -20 6 0 8 10 4 24 -5 23 -2 24 108 44 62 12 132 24 156 28 23 4 42 10
42 15 0 5 -1 9 -2 8 -2 0 -86 -16 -187 -34z"/>
<path d="M4315 3020 c-19 -8 -19 -9 3 -9 12 -1 22 4 22 9 0 6 -1 10 -2 9 -2 0
-12 -4 -23 -9z"/>
<path d="M111 3003 c-23 -16 -28 -62 -9 -81 21 -21 66 -14 84 13 15 23 15 27
1 49 -20 30 -50 38 -76 19z m59 -18 c26 -32 -13 -81 -47 -59 -35 22 -23 74 17
74 10 0 23 -7 30 -15z"/>
<path d="M6272 2985 c0 -16 2 -22 5 -12 2 9 2 23 0 30 -3 6 -5 -1 -5 -18z"/>
<path d="M401 2932 c-22 -38 -41 -77 -41 -88 0 -14 60 -56 239 -166 l239 -146
94 -7 c51 -4 101 -9 111 -12 9 -2 17 1 17 7 0 15 -99 176 -119 193 -38 33
-465 287 -481 287 -11 0 -33 -25 -59 -68z m98 39 l24 -19 -47 -76 -48 -76 -29
17 c-16 10 -29 22 -29 27 0 19 81 146 93 146 7 0 23 -9 36 -19z m239 -146
l193 -119 -23 -18 c-49 -39 -45 -41 -234 75 l-182 112 21 37 c12 20 24 35 27
34 3 -2 92 -56 198 -121z m-86 -64 c216 -132 200 -118 191 -169 l-8 -42 -125
76 c-69 42 -157 97 -197 121 l-72 44 21 35 c11 19 22 34 24 34 2 0 77 -45 166
-99z m320 -113 c21 -37 21 -38 2 -73 -18 -33 -21 -35 -71 -35 -58 0 -60 4 -44
72 6 27 67 81 84 75 4 -1 18 -19 29 -39z m68 -110 c0 -5 -16 -8 -35 -8 -39 0
-42 6 -19 39 l17 24 18 -24 c10 -13 19 -27 19 -31z"/>
<path d="M4387 2980 c3 -11 9 -20 13 -20 5 0 6 9 3 20 -3 11 -9 20 -13 20 -5
0 -6 -9 -3 -20z"/>
<path d="M4917 2972 c-19 -20 -24 -31 -16 -39 22 -22 -147 -113 -209 -113 -16
0 -21 -10 -26 -52 -11 -83 -43 -171 -87 -234 l-41 -57 24 -24 24 -24 52 35
c68 45 146 74 224 82 l64 6 18 63 c23 81 80 168 105 160 11 -3 27 6 46 25 l29
30 -84 85 c-47 47 -87 85 -90 85 -4 0 -18 -13 -33 -28z m113 -67 l74 -75 -21
-21 -22 -22 -74 79 c-70 73 -74 80 -60 97 9 9 19 17 22 17 4 0 40 -34 81 -75z
m-51 -49 l52 -55 -36 -50 c-34 -48 -75 -143 -75 -176 0 -11 -11 -15 -44 -15
-60 0 -159 -32 -230 -75 -32 -19 -61 -33 -64 -31 -2 3 40 47 93 98 84 80 101
92 127 89 56 -5 88 51 51 91 -38 42 -111 6 -100 -50 5 -26 -4 -38 -88 -122
-52 -52 -97 -91 -100 -88 -3 3 12 34 35 68 41 65 55 103 74 204 l12 59 62 17
c34 10 86 33 115 53 28 20 55 36 58 36 3 1 29 -23 58 -53z m-134 -140 c19 -29
11 -54 -21 -62 -43 -11 -73 29 -48 64 20 29 50 28 69 -2z"/>
<path d="M1222 2932 c-10 -32 -19 -42 -54 -56 l-43 -16 38 -27 c30 -21 37 -33
37 -59 0 -43 14 -50 47 -24 23 18 36 20 70 15 47 -7 49 -4 32 43 -9 27 -8 36
10 61 12 16 21 32 21 35 0 3 -18 6 -41 6 -33 0 -45 6 -66 30 -13 17 -28 30
-32 30 -4 0 -13 -17 -19 -38z m104 -32 l36 0 -17 -26 c-12 -19 -15 -36 -10
-64 l7 -39 -33 9 c-26 8 -36 6 -58 -11 l-26 -21 -8 34 c-4 18 -19 42 -33 54
l-26 21 31 13 c21 8 34 23 42 48 l12 36 23 -27 c17 -20 32 -27 60 -27z"/>
<path d="M6180 2936 c0 -2 11 -6 25 -8 14 -3 25 -1 25 3 0 5 -11 9 -25 9 -14
0 -25 -2 -25 -4z"/>
<path d="M1788 2892 c-193 -33 -208 -36 -208 -56 0 -29 66 -415 71 -421 3 -2
102 12 222 32 165 28 217 40 217 51 0 14 -55 350 -66 405 -3 15 -11 27 -17 26
-7 -1 -105 -17 -219 -37z m202 8 c0 -21 -51 -39 -171 -59 -148 -25 -183 -26
-198 -7 -9 11 21 18 167 43 210 36 202 36 202 23z m55 -198 c29 -179 29 -198
3 -178 -13 9 -24 55 -44 170 -23 136 -24 162 -13 183 12 23 14 23 20 6 4 -10
19 -91 34 -181z m-56 -2 c14 -82 22 -152 18 -156 -6 -7 -298 -57 -302 -52 -4
5 -53 303 -50 306 3 4 263 49 290 51 18 1 22 -13 44 -149z m-361 107 c6 -7 23
-84 38 -171 24 -144 25 -159 10 -174 -8 -9 -17 -14 -19 -11 -1 2 -16 86 -33
187 -29 177 -28 208 4 169z m427 -307 c3 -6 2 -10 -3 -10 -6 0 -90 -14 -187
-31 -97 -16 -180 -28 -183 -24 -3 3 2 13 11 23 12 12 65 25 170 43 146 25 176
24 192 -1z"/>
<path d="M6323 2923 c9 -2 23 -2 30 0 6 3 -1 5 -18 5 -16 0 -22 -2 -12 -5z"/>
<path d="M3192 2870 c-19 -25 -30 -30 -63 -30 l-41 0 21 -36 c19 -32 20 -41
10 -71 -6 -19 -9 -37 -6 -39 3 -3 22 -1 42 5 33 9 41 7 70 -14 17 -14 35 -25
38 -25 4 0 7 19 7 43 0 37 4 45 37 66 l37 24 -45 21 c-33 16 -46 29 -53 54
-11 40 -26 41 -54 2z m47 -23 c8 -23 21 -36 43 -45 l31 -12 -25 -20 c-15 -11
-29 -35 -33 -56 l-6 -36 -24 22 c-18 17 -30 20 -60 14 l-36 -6 6 35 c5 25 2
42 -10 61 l-17 26 35 0 c27 0 41 6 54 25 24 32 29 31 42 -8z"/>
<path d="M6260 2876 c0 -31 6 -34 13 -6 3 11 1 23 -4 26 -5 3 -9 -6 -9 -20z"/>
<path d="M39 2690 c-19 -22 -30 -40 -23 -40 7 0 23 14 35 31 l22 32 18 -36
c14 -25 28 -37 51 -42 l32 -7 -27 -24 c-20 -17 -27 -32 -27 -60 l0 -36 -25 16
c-25 17 -52 20 -79 10 -29 -11 -16 -23 14 -13 24 9 34 7 59 -10 16 -12 32 -21
35 -21 3 0 6 18 6 40 0 33 6 46 33 69 l32 30 -30 11 c-16 6 -35 12 -42 15 -6
2 -17 20 -24 39 -7 20 -15 36 -19 36 -3 0 -21 -18 -41 -40z"/>
<path d="M6420 2657 c0 -2 11 -18 25 -37 16 -22 23 -41 19 -54 -3 -12 -8 -29
-10 -38 -3 -11 0 -18 8 -18 19 0 21 79 3 107 -19 28 -19 31 3 36 9 3 2 5 -15
6 -18 0 -33 0 -33 -2z"/>
<path d="M1317 2522 c-34 -37 -11 -92 38 -92 24 0 55 33 55 57 0 19 -37 53
-58 53 -11 0 -26 -8 -35 -18z m73 -37 c0 -14 -8 -29 -19 -35 -45 -23 -81 30
-41 62 28 23 60 8 60 -27z"/>
<path d="M490 2493 c0 -13 5 -23 10 -23 13 0 13 11 0 30 -8 12 -10 11 -10 -7z"/>
<path d="M560 2450 c-12 -8 -11 -10 7 -10 12 0 25 5 28 10 8 13 -15 13 -35 0z"/>
<path d="M430 2420 c-13 -9 -13 -10 0 -10 8 0 22 5 30 10 13 9 13 10 0 10 -8
0 -22 -5 -30 -10z"/>
<path d="M4225 2386 c-19 -28 -9 -58 26 -76 30 -17 69 11 69 50 0 51 -67 69
-95 26z m73 2 c22 -22 14 -57 -13 -64 -35 -9 -55 2 -55 29 0 27 17 47 40 47 9
0 21 -5 28 -12z"/>
<path d="M510 2393 c0 -5 5 -15 10 -23 8 -12 10 -11 10 8 0 12 -4 22 -10 22
-5 0 -10 -3 -10 -7z"/>
<path d="M319 2270 c-57 -71 -72 -106 -67 -162 4 -35 13 -57 31 -76 25 -27 26
-32 50 -355 14 -181 29 -333 35 -339 5 -5 18 -8 28 -6 18 3 19 20 19 343 0
250 3 347 13 368 23 54 16 103 -23 146 -24 26 -38 54 -43 82 l-7 43 -36 -44z
m31 -20 c0 -10 13 -34 29 -52 54 -63 62 -97 36 -148 -14 -26 -21 -30 -60 -30
-35 0 -48 5 -64 25 -40 52 -35 114 15 187 30 42 44 48 44 18z m54 -566 c7
-323 4 -366 -24 -338 -5 5 -19 136 -30 289 -11 154 -22 297 -25 318 -7 49 -1
57 39 57 l33 0 7 -326z"/>
<path d="M20 2290 c-18 -6 -5 -8 46 -9 55 -1 75 -5 87 -19 14 -16 20 -83 38
-451 25 -513 31 -476 -88 -486 -111 -9 -119 -13 -30 -14 91 -1 133 15 144 57
3 15 -3 220 -14 456 l-20 429 -27 24 c-28 24 -84 30 -136 13z"/>
<path d="M3259 2267 c-95 -32 -174 -83 -254 -162 -80 -79 -133 -160 -166 -255
-32 -91 -32 -250 -1 -331 59 -149 188 -214 374 -189 46 6 108 22 138 36 62 28
150 85 150 97 0 4 -19 -5 -42 -21 -138 -94 -300 -127 -434 -87 -220 65 -267
401 -91 648 116 162 294 270 448 271 107 1 158 -33 159 -107 0 -31 -8 -46 -55
-97 -60 -65 -66 -89 -34 -121 20 -20 29 -21 94 -16 64 6 76 4 99 -14 56 -44
55 -155 -5 -272 -17 -33 -24 -55 -16 -49 25 21 68 130 74 186 7 65 -10 119
-45 147 -24 18 -35 20 -89 14 -74 -8 -101 -1 -112 28 -11 28 1 50 50 94 63 57
71 122 21 176 -49 52 -153 61 -263 24z"/>
<path d="M3900 2270 c0 -11 4 -20 9 -20 6 0 9 9 8 20 -1 11 -5 20 -9 20 -4 0
-8 -9 -8 -20z"/>
<path d="M4629 2198 c-39 -51 -75 -102 -80 -113 -4 -11 -27 -134 -49 -274 -34
-214 -44 -257 -60 -268 -21 -15 -26 -43 -11 -59 5 -5 11 -25 13 -44 l3 -35
100 -17 c130 -22 135 -22 135 1 0 11 11 32 25 47 29 31 31 41 11 63 -13 14 -9
50 29 281 l45 265 -41 123 c-22 67 -42 122 -44 122 -2 0 -36 -42 -76 -92z m90
21 c7 -23 10 -43 7 -46 -6 -6 -86 7 -86 13 0 8 55 74 61 74 3 0 11 -18 18 -41z
m4 -66 c18 -5 30 -28 43 -78 5 -19 0 -26 -24 -39 -30 -15 -31 -15 -50 11 -19
26 -28 26 -64 1 -14 -10 -21 -8 -42 11 l-25 24 31 44 c31 42 34 44 73 38 22
-4 48 -9 58 -12z m-138 -113 c17 -19 16 -28 -22 -257 -39 -236 -39 -238 -63
-235 -13 1 -25 3 -26 5 -4 6 81 507 87 507 3 0 14 -9 24 -20z m115 -40 c0 -8
-18 -118 -39 -245 -35 -209 -40 -230 -57 -227 -47 7 -64 13 -64 25 0 6 18 115
39 241 34 206 41 231 62 247 23 18 24 18 41 -4 10 -12 18 -29 18 -37z m70 19
c0 -8 -44 -279 -75 -466 -5 -27 -11 -33 -30 -33 -14 0 -25 6 -25 13 0 6 16
113 36 237 30 183 40 228 56 243 23 19 38 22 38 6z m-170 -504 c99 -17 126
-30 110 -54 -7 -13 -26 -12 -134 4 -131 19 -160 32 -136 60 8 10 23 14 39 11
14 -3 69 -13 121 -21z m-17 -66 c79 -11 87 -14 87 -34 0 -12 -2 -24 -5 -27 -5
-5 -204 28 -211 35 -2 2 -1 13 3 25 3 15 11 21 22 18 9 -2 55 -10 104 -17z"/>
<path d="M6200 2280 c-63 -4 -123 -8 -132 -9 -40 -3 -58 -37 -58 -108 -1 -148
32 -800 42 -824 16 -44 43 -50 221 -42 89 3 173 10 187 14 25 8 -232 2 -302
-6 -42 -6 -84 10 -93 34 -6 15 -44 727 -45 834 0 76 14 84 166 91 71 4 167 10
214 15 l85 8 -85 0 c-47 0 -137 -4 -200 -7z"/>
<path d="M1348 2211 c-74 -83 -86 -156 -34 -218 20 -24 24 -41 27 -128 4 -91
2 -100 -13 -97 -10 2 -18 2 -18 0 -1 -2 -20 -97 -44 -213 -24 -115 -42 -212
-40 -214 6 -7 538 -112 553 -109 21 4 104 415 86 426 -10 5 7 52 61 176 40 93
75 170 77 173 2 2 16 -1 30 -6 l26 -10 -48 -111 c-27 -60 -46 -110 -42 -110 4
0 29 50 56 111 53 121 53 117 -12 141 -37 13 -39 21 -18 58 20 36 19 39 -20
56 -45 19 -43 20 -60 -24 -11 -28 -22 -38 -36 -38 -17 1 -34 -30 -103 -189
-70 -158 -87 -189 -102 -187 -11 2 -20 5 -20 5 -1 1 14 76 33 167 l34 165 -17
103 c-9 56 -20 102 -23 102 -3 0 -30 -37 -59 -82 -51 -79 -54 -89 -87 -252
-19 -93 -36 -170 -37 -172 -2 -1 -15 0 -30 3 l-28 5 0 115 c0 88 4 119 16 138
27 41 20 99 -17 147 -20 25 -35 57 -39 81 l-5 41 -47 -53z m87 -90 c29 -39 32
-86 9 -119 -23 -34 -95 -31 -123 4 -37 47 -24 124 33 195 l21 26 18 -36 c9
-20 28 -51 42 -70z m249 47 c7 -38 8 -38 -25 -31 -27 5 -27 5 -10 34 21 37 27
36 35 -3z m2 -53 c18 -5 23 -63 6 -70 -18 -7 -89 12 -97 26 -4 5 1 21 9 35 16
24 28 25 82 9z m293 6 c12 -8 12 -14 1 -41 -11 -27 -17 -31 -39 -25 -34 9 -33
6 -19 43 12 32 31 39 57 23z m8 -106 c9 -6 -152 -345 -163 -345 -7 0 -36 5
-64 11 -39 8 -50 15 -46 26 4 8 40 93 82 188 l76 173 56 -25 c32 -14 58 -27
59 -28z m-319 15 c20 0 32 -5 32 -14 0 -12 -42 -228 -55 -285 -6 -22 -9 -23
-56 -17 -83 11 -79 1 -48 159 42 208 34 188 67 171 15 -7 42 -14 60 -14z
m-238 -170 c0 -107 -1 -110 -22 -110 -13 0 -28 4 -34 8 -6 4 -15 53 -18 110
l-8 102 41 0 41 0 0 -110z m168 -162 l264 -53 -6 -39 c-4 -22 -9 -42 -11 -46
-2 -4 -120 17 -262 46 -142 29 -264 53 -271 54 -19 0 -3 90 16 90 4 0 126 -23
270 -52z m-14 -108 c138 -27 251 -50 253 -50 6 0 -9 -74 -16 -82 -5 -5 -401
69 -519 97 -18 5 -21 10 -16 33 13 58 16 63 32 58 10 -3 129 -28 266 -56z
m-22 -102 l259 -52 -7 -40 c-3 -23 -8 -43 -11 -46 -2 -2 -126 20 -274 49
l-271 54 6 30 c3 16 6 36 6 43 0 8 7 14 17 14 9 0 133 -23 275 -52z m-13 -107
c133 -28 245 -51 246 -53 4 -4 -11 -77 -17 -83 -2 -3 -442 83 -516 100 -20 5
-22 10 -16 43 9 49 12 53 37 47 12 -3 132 -27 266 -54z"/>
<path d="M3285 2195 c-14 -13 -25 -36 -25 -50 0 -14 11 -37 25 -50 38 -39 86
-32 111 16 39 77 -51 145 -111 84z m93 -8 c17 -13 15 -72 -2 -86 -24 -20 -79
-9 -92 18 -30 59 40 110 94 68z"/>
<path d="M3825 2210 c-4 -6 5 -10 19 -10 14 0 26 5 26 10 0 6 -9 10 -19 10
-11 0 -23 -4 -26 -10z"/>
<path d="M3963 2213 c9 -2 23 -2 30 0 6 3 -1 5 -18 5 -16 0 -22 -2 -12 -5z"/>
<path d="M816 2199 c-66 -5 -120 -10 -122 -11 -3 -4 26 -439 31 -465 9 -40 32
-44 202 -32 169 12 193 20 193 66 0 16 -6 23 -20 23 -11 0 -23 6 -25 13 -2 6
-10 102 -17 212 l-13 200 -55 1 c-30 1 -109 -2 -174 -7z m218 -41 c8 -60 27
-370 24 -374 -2 -1 -57 -6 -123 -11 l-120 -8 -3 -28 c-5 -38 -36 -53 -60 -29
-15 15 -20 48 -30 218 -7 109 -12 211 -12 225 l0 27 133 9 c72 6 144 11 159
11 24 2 27 -2 32 -40z m76 -401 c0 -34 -34 -45 -163 -52 l-129 -7 7 24 c4 13
9 25 11 27 4 4 152 17 227 20 33 1 47 -3 47 -12z"/>
<path d="M6330 2174 c1 -116 38 -785 43 -791 9 -9 9 7 -12 440 -10 208 -21
381 -25 384 -3 4 -6 -11 -6 -33z"/>
<path d="M22 2193 c28 -4 68 -45 68 -68 0 -23 -40 -64 -68 -68 -25 -4 -25 -4
5 -6 36 -1 73 36 73 74 0 38 -37 75 -73 74 -30 -2 -30 -2 -5 -6z"/>
<path d="M5402 2188 c-17 -17 -15 -63 2 -77 24 -20 69 -9 85 21 14 24 14 28
-3 47 -21 23 -65 28 -84 9z m62 -4 c10 -4 16 -18 16 -35 0 -22 -6 -30 -25 -35
-43 -11 -73 34 -43 64 13 13 28 15 52 6z"/>
<path d="M6447 2182 c-30 -33 -32 -75 -4 -108 14 -16 29 -26 33 -21 4 4 -2 14
-14 23 -29 20 -29 70 0 101 12 13 17 23 11 23 -5 0 -17 -8 -26 -18z"/>
<path d="M4966 2173 c-2 -10 -28 -166 -57 -346 l-53 -329 29 -55 c17 -30 37
-58 45 -62 21 -11 239 -45 246 -38 3 3 31 159 61 347 l56 342 -23 42 c-41 76
-40 75 -161 96 -139 24 -137 24 -143 3z m260 -51 c23 -32 47 -82 41 -88 -3 -3
-53 2 -112 12 -77 12 -109 22 -113 33 -11 30 -44 82 -49 77 -3 -3 5 -23 18
-45 l22 -40 -23 -143 c-13 -79 -26 -149 -30 -156 -8 -16 -50 48 -50 76 0 49
45 299 56 313 13 14 24 14 121 -4 69 -12 111 -24 119 -35z m-81 -87 c50 -9 99
-17 111 -20 l20 -4 -24 -153 c-13 -84 -26 -155 -28 -157 -5 -6 -224 31 -228
38 -5 9 46 311 53 311 3 0 47 -7 96 -15z m-190 -275 c18 -40 18 -43 -5 -191
-13 -82 -27 -149 -30 -149 -3 0 -16 18 -29 40 l-22 39 21 128 c34 210 32 206
65 133z m178 -64 c43 -7 80 -15 83 -18 4 -4 -44 -319 -50 -324 -3 -4 -218 34
-222 39 -5 5 29 245 43 305 4 19 10 22 37 17 17 -3 66 -12 109 -19z"/>
<path d="M6125 2165 c-16 -15 -25 -36 -25 -55 0 -38 39 -80 74 -80 39 0 79 41
79 80 0 24 -7 40 -27 57 -35 30 -71 29 -101 -2z m80 3 c48 -21 46 -99 -2 -116
-36 -12 -70 1 -85 33 -18 40 5 78 59 94 1 1 14 -4 28 -11z"/>
<path d="M3912 2160 c0 -14 2 -19 5 -12 2 6 2 18 0 25 -3 6 -5 1 -5 -13z"/>
<path d="M2300 2070 c0 -11 2 -20 4 -20 2 0 6 9 9 20 3 11 1 20 -4 20 -5 0 -9
-9 -9 -20z"/>
<path d="M3088 2075 c-54 -30 -42 -116 19 -131 57 -15 111 49 84 100 -12 21
-50 47 -69 46 -4 -1 -19 -7 -34 -15z m73 -15 c28 -15 26 -74 -3 -94 -29 -20
-41 -20 -68 2 -25 20 -30 63 -10 87 14 17 53 20 81 5z"/>
<path d="M2618 2039 c-27 -15 -23 -65 7 -85 31 -20 63 -10 76 23 19 51 -34 91
-83 62z m62 -13 c19 -23 8 -61 -18 -64 -45 -7 -72 46 -34 67 24 14 38 13 52
-3z"/>
<path d="M2220 2026 c0 -2 9 -6 20 -9 11 -3 20 -1 20 4 0 5 -9 9 -20 9 -11 0
-20 -2 -20 -4z"/>
<path d="M2355 2010 c27 -12 35 -12 35 0 0 6 -12 10 -27 9 -25 0 -26 -1 -8 -9z"/>
<path d="M4009 1999 c-53 -19 -56 -43 -30 -227 13 -92 30 -179 38 -194 39 -79
165 -74 199 8 13 30 12 48 -5 160 -11 70 -23 129 -26 132 -8 8 -6 -16 10 -113
20 -125 19 -167 -5 -198 -39 -50 -131 -41 -161 14 -10 19 -59 308 -59 352 0
47 80 76 113 40 17 -20 70 -343 60 -369 -6 -17 -37 -18 -50 -1 -6 6 -18 63
-27 126 -9 63 -18 117 -21 119 -8 9 -6 -22 11 -135 11 -81 20 -112 35 -125 24
-21 58 -12 65 17 10 39 -44 358 -64 376 -23 23 -52 29 -83 18z"/>
<path d="M5671 1976 c-16 -26 -30 -35 -61 -40 -47 -7 -49 -14 -15 -46 22 -21
25 -30 19 -67 -3 -24 -4 -43 -1 -43 2 0 21 7 41 15 34 14 39 14 78 -6 l41 -21
-7 43 c-6 38 -4 45 25 75 l32 33 -42 11 c-33 9 -45 19 -58 45 -9 19 -20 35
-24 35 -4 0 -17 -15 -28 -34z m48 -21 c12 -21 28 -35 40 -35 29 0 33 -15 11
-35 -13 -11 -20 -31 -20 -53 0 -29 -3 -33 -17 -26 -23 10 -62 10 -90 1 -20 -8
-22 -6 -16 28 5 28 1 41 -17 60 l-22 24 36 7 c27 4 41 14 52 35 8 16 16 29 18
29 2 0 13 -16 25 -35z"/>
<path d="M5 1980 c-4 -6 8 -10 28 -10 38 0 52 -12 62 -51 9 -36 -22 -72 -63
-72 -18 0 -32 -4 -32 -9 0 -4 14 -8 30 -8 70 0 105 86 55 135 -24 25 -69 33
-80 15z"/>
<path d="M2290 1960 c0 -11 2 -20 4 -20 2 0 6 9 9 20 3 11 1 20 -4 20 -5 0 -9
-9 -9 -20z"/>
<path d="M6457 1965 c-9 -8 -19 -24 -22 -36 -8 -25 11 -75 31 -83 13 -5 12 -2
-1 16 -20 29 -19 72 1 93 9 9 14 18 11 21 -2 3 -12 -2 -20 -11z"/>
<path d="M6131 1944 c-44 -56 -10 -124 61 -124 58 0 91 56 64 108 -26 51 -91
59 -125 16z m97 0 c15 -10 22 -25 22 -49 0 -59 -69 -87 -110 -43 -25 28 -25
48 1 82 23 29 54 33 87 10z"/>
<path d="M3124 1887 c-10 -28 3 -115 23 -150 11 -18 40 -43 68 -58 28 -15 137
-77 244 -138 106 -61 201 -111 211 -111 22 0 34 28 19 46 -6 7 -90 69 -187
137 -117 82 -186 137 -202 162 -29 44 -39 50 -97 65 -30 8 -47 19 -57 38 -13
24 -15 25 -22 9z m92 -67 c30 0 74 -38 74 -63 0 -12 -10 -34 -23 -50 l-22 -27
-34 17 c-38 20 -69 70 -78 128 l-6 36 34 -20 c19 -12 44 -21 55 -21z m279
-218 c157 -111 212 -162 176 -162 -16 0 -401 223 -401 232 0 12 31 58 39 58 3
0 87 -57 186 -128z"/>
<path d="M2930 1860 c-11 -11 -20 -33 -20 -50 0 -17 9 -39 20 -50 65 -65 164
34 103 103 -22 23 -78 22 -103 -3z m92 -7 c38 -35 9 -103 -44 -103 -24 0 -58
35 -58 60 0 26 34 60 62 60 12 0 30 -7 40 -17z"/>
<path d="M3516 1839 c-50 -39 -74 -127 -44 -157 33 -33 109 3 134 64 38 90
-19 149 -90 93z m79 -6 c45 -45 -49 -180 -102 -147 -38 24 -23 95 29 139 35
29 50 31 73 8z"/>
<path d="M2492 1827 c-5 -7 -21 -35 -36 -64 -14 -28 -29 -53 -34 -55 -11 -4
-97 -517 -88 -526 14 -14 137 -30 142 -18 2 6 22 120 44 254 37 221 39 249 29
305 -6 34 -13 72 -15 83 -5 26 -29 38 -42 21z m32 -44 c3 -21 6 -50 6 -65 0
-26 -2 -27 -32 -21 -18 3 -36 9 -41 12 -8 8 39 111 52 111 4 0 11 -17 15 -37z
m18 -109 c8 -5 -1 -75 -11 -87 -4 -4 -31 3 -59 15 -43 19 -52 27 -52 49 0 14
3 29 7 33 7 7 100 -2 115 -10z m-65 -86 c27 -13 49 -23 51 -24 3 -2 -46 -295
-50 -300 -2 -1 -26 8 -53 22 -28 13 -53 25 -57 26 -4 2 4 66 17 143 14 77 25
143 25 147 0 13 17 9 67 -14z m-25 -330 c22 -10 26 -17 22 -38 -11 -50 -13
-52 -44 -46 -16 3 -44 9 -60 12 -22 4 -30 10 -26 22 2 10 7 34 11 54 l6 38 32
-15 c18 -8 44 -20 59 -27z"/>
<path d="M2456 1529 c-14 -42 -31 -188 -22 -178 7 7 36 182 31 187 -2 3 -7 -1
-9 -9z"/>
<path d="M5 1760 c-4 -6 5 -7 24 -4 23 5 35 1 55 -19 32 -32 32 -46 5 -82 -18
-22 -28 -26 -55 -23 -37 4 -46 -6 -13 -15 45 -12 99 32 99 79 0 37 -37 74 -75
74 -19 0 -37 -4 -40 -10z"/>
<path d="M6163 1750 c-47 -19 -57 -87 -18 -125 40 -40 96 -30 123 22 18 34 14
52 -17 84 -30 30 -50 34 -88 19z m79 -27 c37 -33 17 -96 -34 -108 -21 -5 -33
-1 -52 19 -30 29 -33 52 -10 84 18 27 69 30 96 5z"/>
<path d="M6461 1747 c-23 -28 -24 -71 -2 -97 11 -14 20 -20 21 -13 0 6 -4 15
-10 18 -14 9 -13 68 2 83 6 6 9 14 6 17 -3 3 -10 -1 -17 -8z"/>
<path d="M2943 1612 c-12 -9 -25 -29 -28 -44 -6 -22 -1 -33 24 -59 25 -25 37
-30 59 -25 60 15 80 79 37 121 -28 29 -61 32 -92 7z m82 -17 c29 -28 31 -42 9
-73 -18 -26 -65 -30 -88 -6 -36 35 -7 98 47 103 4 1 19 -10 32 -24z"/>
<path d="M17 1549 c-9 -5 -17 -15 -17 -21 0 -9 3 -9 12 0 26 26 85 11 99 -24
20 -54 -35 -109 -86 -86 -14 6 -25 8 -25 3 0 -5 7 -12 16 -15 69 -26 134 39
108 109 -7 17 -54 45 -76 45 -7 0 -21 -5 -31 -11z"/>
<path d="M990 1520 c0 -11 4 -20 9 -20 6 0 9 9 8 20 -1 11 -5 20 -9 20 -4 0
-8 -9 -8 -20z"/>
<path d="M3160 1520 c-45 -45 -11 -120 53 -120 43 0 67 26 67 73 0 26 -6 40
-22 51 -31 22 -74 20 -98 -4z m90 -10 c38 -38 12 -100 -42 -100 -24 0 -58 35
-58 60 0 11 9 29 20 40 11 11 29 20 40 20 11 0 29 -9 40 -20z"/>
<path d="M6155 1515 c-45 -44 -22 -115 40 -131 31 -8 72 18 85 52 30 78 -66
139 -125 79z m95 -5 c41 -41 15 -110 -42 -110 -33 0 -68 31 -68 60 0 27 43 70
70 70 11 0 29 -9 40 -20z"/>
<path d="M6458 1505 c-9 -20 -8 -32 3 -57 l15 -31 0 57 c-1 31 -2 56 -4 56 -1
0 -8 -11 -14 -25z"/>
<path d="M1060 1470 l-25 -8 28 -1 c15 -1 27 4 27 9 0 6 -1 10 -2 9 -2 -1 -14
-5 -28 -9z"/>
<path d="M935 1460 c-19 -8 -19 -9 3 -9 12 -1 22 4 22 9 0 6 -1 10 -2 9 -2 0
-12 -4 -23 -9z"/>
<path d="M1002 1405 c0 -16 2 -22 5 -12 2 9 2 23 0 30 -3 6 -5 -1 -5 -18z"/>
<path d="M2045 1380 c-35 -38 6 -96 58 -82 28 7 43 46 29 77 -14 31 -61 34
-87 5z m75 -10 c15 -28 -4 -60 -35 -60 -14 0 -29 8 -35 20 -15 28 4 60 35 60
14 0 29 -8 35 -20z"/>
<path d="M5312 1185 c-180 -138 -289 -215 -304 -215 -13 0 -37 -9 -54 -19 -26
-16 -36 -33 -53 -91 -12 -40 -33 -83 -47 -96 -31 -32 -15 -39 69 -30 106 11
177 62 177 128 0 18 55 71 246 238 135 117 254 220 265 228 24 17 25 48 0 61
-16 9 -62 -22 -299 -204z m303 178 c0 -6 -79 -80 -175 -163 -96 -84 -183 -159
-193 -168 -16 -14 -19 -14 -35 9 -9 13 -17 27 -17 31 0 13 391 307 405 305 8
-1 15 -8 15 -14z m-415 -328 l24 -25 -44 -38 c-78 -67 -78 -67 -101 -38 -11
14 -20 28 -20 32 -1 7 102 92 112 93 3 1 16 -10 29 -24z m-138 -105 c26 -27
30 -36 25 -67 -12 -69 -77 -113 -167 -113 -50 0 -50 0 -36 23 8 12 20 42 26
67 19 71 37 99 73 109 47 13 46 14 79 -19z"/>
<path d="M651 1211 c-90 -53 -163 -100 -162 -106 2 -18 334 -446 357 -462 17
-11 28 -12 43 -4 29 16 37 14 49 -13 8 -18 7 -27 -4 -37 -12 -12 -11 -18 4
-41 l18 -27 77 45 77 46 -16 29 c-11 22 -20 28 -34 24 -13 -4 -22 1 -30 15
-10 18 -8 26 9 44 12 12 21 31 21 42 0 29 -222 544 -234 543 -6 -1 -85 -44
-175 -98z m189 59 c12 -22 24 -13 -167 -124 -72 -42 -136 -76 -142 -76 -6 0
-15 9 -20 19 -10 17 5 29 142 109 83 50 157 90 164 91 7 1 17 -8 23 -19z m49
-117 c17 -43 31 -81 31 -85 0 -7 -257 -158 -268 -157 -13 1 -115 143 -106 147
5 2 72 41 149 87 77 46 145 84 151 84 7 1 26 -34 43 -76z m84 -196 c20 -50 37
-95 37 -98 0 -10 -210 -131 -220 -127 -5 2 -36 39 -69 83 l-60 79 132 78 c73
43 134 78 137 78 3 0 22 -42 43 -93z m74 -175 c3 -12 0 -28 -6 -36 -17 -21
-151 -96 -170 -96 -17 0 -79 56 -70 64 2 2 51 31 109 65 97 56 106 59 118 43
7 -9 15 -27 19 -40z m-17 -132 c0 -4 -12 -13 -27 -21 -16 -7 -31 -15 -34 -17
-3 -1 -13 8 -22 22 -16 24 -16 25 16 44 32 20 32 20 50 0 9 -11 17 -23 17 -28z
m54 -17 c6 -15 -8 -32 -25 -33 -14 0 -19 34 -7 42 19 11 25 10 32 -9z m-50
-30 c6 -15 -8 -32 -25 -33 -14 0 -19 34 -7 42 19 11 25 10 32 -9z m-49 -23 c4
-6 1 -18 -6 -26 -11 -13 -14 -13 -27 0 -8 8 -11 19 -8 25 9 14 33 14 41 1z"/>
<path d="M3997 1273 c-4 -3 -7 -23 -7 -44 0 -20 -5 -39 -12 -41 -12 -4 -16
-26 -17 -95 -1 -36 -4 -43 -21 -43 -17 0 -19 -5 -14 -42 5 -38 2 -50 -30 -97
-40 -60 -40 -59 -22 -239 17 -174 9 -169 211 -149 213 21 203 10 186 204 -14
158 -19 174 -77 225 -29 26 -34 37 -34 74 0 40 -2 44 -24 44 -21 0 -25 7 -35
61 -7 34 -18 62 -27 66 -8 3 -14 14 -14 25 0 43 -39 75 -63 51z m44 -36 c8
-29 3 -37 -23 -37 -13 0 -18 8 -18 28 0 50 28 56 41 9z m46 -107 c6 -29 9 -58
7 -62 -3 -4 -30 -8 -60 -8 l-54 0 0 59 0 60 33 4 c57 7 61 5 74 -53z m63 -116
c0 -12 -7 -25 -16 -28 -21 -8 -22 -7 -30 31 -5 25 -3 32 12 35 22 5 34 -9 34
-38z m-110 -10 c0 -12 -7 -25 -16 -28 -21 -8 -22 -7 -30 31 -5 25 -3 32 12 35
22 5 34 -9 34 -38z m50 11 c0 -28 -4 -35 -20 -35 -16 0 -20 7 -20 35 0 28 4
35 20 35 16 0 20 -7 20 -35z m-110 -10 c0 -28 -4 -35 -20 -35 -16 0 -20 7 -20
35 0 28 4 35 20 35 16 0 20 -7 20 -35z m217 -75 c46 -44 45 -42 63 -231 6 -59
8 -114 4 -123 -8 -21 -20 -23 -188 -39 -182 -17 -172 -26 -191 163 l-14 145
31 52 c28 47 36 53 72 58 170 21 175 21 223 -25z"/>
<path d="M4010 836 l-95 -11 3 -40 c7 -84 21 -206 26 -213 4 -6 276 15 283 21
0 1 -4 59 -9 130 l-11 127 -51 -1 c-28 -1 -94 -7 -146 -13z m183 -25 c4 -16 9
-69 13 -118 l7 -90 -128 -11 c-71 -7 -129 -11 -131 -10 -6 7 -23 222 -18 227
3 3 51 11 107 17 154 17 144 18 150 -15z"/>
<path d="M4048 770 c-38 -3 -71 -10 -75 -14 -10 -10 158 4 177 15 18 10 0 10
-102 -1z"/>
<path d="M4023 713 c-24 -2 -43 -7 -43 -12 0 -7 164 5 185 13 12 5 -83 4 -142
-1z"/>
<path d="M4057 659 c-38 -4 -72 -10 -75 -14 -10 -10 172 6 183 16 10 10 -9 10
-108 -2z"/>
<path d="M5832 1235 c0 -16 2 -22 5 -12 2 9 2 23 0 30 -3 6 -5 -1 -5 -18z"/>
<path d="M44 1164 c-57 -67 -54 -77 4 -15 l51 53 28 -20 c15 -11 46 -39 67
-61 l39 -40 -73 -78 c-41 -43 -77 -79 -81 -81 -4 -2 -23 11 -43 29 -44 38 -47
27 -5 -17 l31 -32 -33 -41 c-18 -23 -30 -44 -27 -47 3 -3 16 9 28 26 12 17 24
29 26 27 8 -7 -26 -105 -41 -117 -16 -14 -21 -35 -5 -25 5 3 53 54 107 113 92
99 100 112 117 176 l19 70 -66 63 c-37 35 -76 63 -86 63 -10 0 -36 -21 -57
-46z m171 -167 c-10 -34 -34 -70 -82 -122 -37 -40 -69 -72 -71 -70 -2 2 2 23
9 47 9 29 36 69 82 121 38 43 71 76 73 74 2 -1 -3 -24 -11 -50z"/>
<path d="M5740 1189 c0 -5 11 -9 25 -9 14 0 25 2 25 4 0 2 -11 6 -25 8 -14 3
-25 1 -25 -3z"/>
<path d="M5870 1176 c0 -2 9 -6 20 -9 11 -3 20 -1 20 4 0 5 -9 9 -20 9 -11 0
-20 -2 -20 -4z"/>
<path d="M5818 1130 c-7 -24 -3 -38 8 -28 3 4 4 17 2 30 l-3 23 -7 -25z"/>
<path d="M4612 1085 c0 -16 2 -22 5 -12 2 9 2 23 0 30 -3 6 -5 -1 -5 -18z"/>
<path d="M6357 985 c-109 -117 -117 -128 -138 -196 l-22 -73 67 -63 c36 -35
75 -63 85 -63 18 0 131 112 131 130 0 5 -23 -16 -52 -46 -28 -30 -52 -53 -54
-51 -2 1 4 25 12 53 9 33 28 63 54 89 22 22 40 44 40 49 0 6 -20 -10 -45 -34
l-45 -44 -55 54 c-30 30 -57 52 -60 49 -2 -3 20 -30 50 -59 30 -30 55 -62 55
-70 0 -27 -32 -111 -40 -108 -16 6 -130 120 -126 126 2 4 11 33 20 65 14 48
30 73 93 140 42 45 80 84 85 86 5 2 23 -9 39 -25 36 -35 38 -20 2 18 l-27 28
29 30 c16 16 26 32 23 35 -2 3 -57 -51 -121 -120z"/>
<path d="M4543 1033 c9 -2 23 -2 30 0 6 3 -1 5 -18 5 -16 0 -22 -2 -12 -5z"/>
<path d="M3170 1015 c-22 -26 5 -39 140 -70 158 -35 185 -46 204 -84 39 -75
-7 -152 -92 -152 -20 -1 -113 18 -207 41 -177 43 -205 57 -205 105 0 29 30 55
62 55 35 0 291 -60 303 -71 5 -6 4 -14 -3 -21 -12 -12 -30 -10 -208 29 -23 5
-42 -23 -25 -40 15 -15 211 -57 237 -51 53 13 70 76 32 118 -19 20 -53 31
-185 61 -179 41 -202 40 -243 -13 -36 -45 -22 -135 26 -167 35 -22 403 -107
439 -100 137 25 182 188 76 278 -22 18 -66 33 -168 56 -76 18 -145 35 -154 37
-9 2 -22 -3 -29 -11z m183 -39 c111 -27 144 -39 167 -61 96 -92 35 -245 -98
-245 -44 0 -364 74 -400 92 -57 29 -69 113 -23 159 39 38 68 37 246 -5 149
-36 182 -56 169 -100 -11 -35 -25 -46 -61 -46 -55 0 -203 41 -203 56 0 7 6 12
13 10 6 -3 54 -14 105 -26 84 -20 95 -21 109 -7 9 9 13 23 9 34 -5 16 -32 26
-139 51 -196 47 -189 46 -220 22 -33 -26 -38 -87 -9 -113 26 -24 388 -110 429
-102 73 13 114 106 78 175 -20 39 -33 45 -182 81 -164 39 -163 39 -163 50 0
14 25 11 173 -25z"/>
<path d="M4663 1023 c9 -2 23 -2 30 0 6 3 -1 5 -18 5 -16 0 -22 -2 -12 -5z"/>
<path d="M2017 1006 c-17 -43 151 -247 278 -338 75 -54 80 -59 91 -108 22 -96
74 -139 180 -148 l66 -5 -16 31 c-9 18 -19 52 -23 78 -10 72 -77 134 -147 134
-14 0 -26 4 -26 9 0 24 -126 173 -199 236 -135 115 -191 145 -204 111z m93
-41 c65 -44 193 -158 215 -192 17 -25 16 -26 -14 -56 l-30 -31 -80 81 c-44 44
-100 109 -125 143 -71 96 -58 117 34 55z m276 -275 c22 -33 24 -43 14 -55 -13
-16 -30 -9 -84 31 -19 14 -19 14 4 39 13 14 27 25 32 25 4 0 20 -18 34 -40z
m111 -69 c50 -23 74 -57 84 -119 4 -26 11 -55 15 -66 6 -17 3 -18 -37 -11 -97
15 -147 60 -156 139 -9 75 17 91 94 57z"/>
<path d="M4608 975 c-3 -14 -1 -25 3 -25 5 0 9 11 9 25 0 14 -2 25 -4 25 -2 0
-6 -11 -8 -25z"/>
<path d="M5700 946 c-229 -64 -349 -260 -268 -437 42 -91 117 -132 243 -131
194 1 310 113 230 222 -14 19 -25 41 -25 50 0 9 18 34 41 55 72 70 86 122 49
183 -40 65 -156 89 -270 58z m212 -23 c18 -10 41 -35 51 -56 25 -49 12 -88
-48 -147 -53 -52 -57 -80 -20 -130 32 -44 32 -81 -2 -121 -40 -47 -103 -71
-203 -77 -73 -4 -93 -1 -138 18 -29 12 -63 35 -76 51 -87 103 -68 269 40 369
112 103 302 148 396 93z"/>
<path d="M5813 878 c-21 -28 -22 -49 -3 -68 11 -11 28 -20 38 -20 22 0 52 30
52 53 0 38 -65 64 -87 35z m51 -4 c21 -8 21 -48 0 -65 -31 -26 -70 25 -44 56
14 17 21 18 44 9z"/>
<path d="M5642 854 c-30 -21 -29 -59 3 -80 23 -15 27 -15 50 0 32 21 33 59 3
80 -12 9 -25 16 -28 16 -3 0 -16 -7 -28 -16z m59 -20 c17 -21 0 -49 -31 -49
-31 0 -48 28 -31 49 8 9 21 16 31 16 10 0 23 -7 31 -16z"/>
<path d="M5512 744 c-30 -21 -29 -59 3 -80 23 -15 27 -15 50 0 32 21 33 59 3
80 -12 9 -25 16 -28 16 -3 0 -16 -7 -28 -16z m59 -20 c17 -21 0 -49 -31 -49
-31 0 -48 28 -31 49 8 9 21 16 31 16 10 0 23 -7 31 -16z"/>
<path d="M5510 570 c-34 -34 -17 -80 30 -80 51 0 72 55 32 88 -22 17 -39 15
-62 -8z m67 -16 c9 -24 -10 -49 -38 -49 -24 0 -36 23 -25 51 7 19 55 18 63 -2z"/>
<path d="M5738 544 c-27 -14 -48 -42 -48 -63 0 -19 32 -41 61 -41 20 0 40 10
60 29 34 35 36 44 9 71 -24 24 -45 25 -82 4z m77 -33 c0 -33 -45 -66 -79 -57
-59 15 -14 90 49 84 24 -2 30 -8 30 -27z"/>
<path d="M1460 922 c0 -4 59 -15 131 -24 144 -17 177 -32 193 -85 10 -38 -7
-77 -47 -107 -27 -20 -28 -20 -190 -3 -89 10 -174 23 -190 29 -46 18 -49 100
-4 117 13 5 89 0 191 -13 134 -17 171 -25 180 -38 8 -13 7 -21 -4 -32 -13 -13
-29 -13 -125 -1 -125 16 -149 17 -120 6 11 -5 69 -13 128 -20 83 -9 112 -9
123 0 17 14 18 53 1 67 -20 17 -349 55 -379 43 -54 -20 -57 -102 -6 -135 29
-18 334 -55 373 -45 67 19 102 92 72 155 -22 46 -55 60 -177 73 -58 7 -115 14
-127 17 -13 2 -23 1 -23 -4z"/>
<path d="M2757 837 c-11 -29 -9 -43 4 -30 6 6 9 19 7 29 -3 18 -4 18 -11 1z"/>
<path d="M2680 780 c19 -13 30 -13 30 0 0 6 -10 10 -22 10 -19 0 -20 -2 -8
-10z"/>
<path d="M2795 760 c3 -5 16 -10 28 -10 18 0 19 2 7 10 -20 13 -43 13 -35 0z"/>
<path d="M222 728 c-16 -16 -15 -63 2 -77 21 -18 66 -9 82 14 11 16 11 25 1
45 -14 28 -64 39 -85 18z m68 -13 c26 -32 -13 -81 -47 -59 -35 22 -23 74 17
74 10 0 23 -7 30 -15z"/>
<path d="M2741 733 c0 -6 -4 -20 -7 -30 -5 -14 -4 -15 5 -7 7 7 11 20 8 30 -3
11 -5 14 -6 7z"/>
<path d="M4446 677 c-19 -29 -11 -61 19 -77 34 -18 75 9 75 50 0 50 -67 69
-94 27z m76 -12 c14 -32 -5 -57 -41 -53 -18 2 -27 10 -29 26 -7 50 49 72 70
27z"/>
<path d="M551 606 c-16 -26 -30 -35 -61 -40 -22 -3 -40 -10 -40 -14 1 -4 11
-20 24 -36 20 -24 22 -33 14 -63 -5 -19 -7 -37 -4 -40 3 -3 22 1 43 9 35 14
40 14 68 -3 42 -26 45 -24 45 22 0 33 6 45 30 66 36 29 33 38 -16 48 -30 5
-39 13 -52 46 -8 21 -18 39 -23 39 -4 0 -17 -15 -28 -34z m46 -25 c7 -20 20
-31 42 -36 37 -8 39 -17 9 -37 -17 -12 -22 -23 -20 -51 3 -41 -3 -44 -36 -21
-22 15 -35 15 -76 -2 -17 -7 -19 -4 -13 25 5 25 2 40 -14 62 l-20 29 26 0 c17
0 36 11 53 30 15 17 29 30 32 30 3 0 11 -13 17 -29z"/>
<path d="M3147 522 c-22 -25 -21 -55 2 -76 26 -24 62 -17 80 15 13 24 13 29
-2 53 -21 31 -56 34 -80 8z m63 -12 c16 -16 18 -25 10 -40 -20 -38 -79 -25
-80 17 0 14 27 43 41 43 5 0 18 -9 29 -20z"/>
<path d="M1505 443 c-230 -46 -377 -81 -387 -90 -10 -9 -18 -30 -18 -46 0 -47
53 -307 63 -307 5 0 6 8 3 17 -18 58 -56 288 -51 304 4 11 16 25 28 30 24 10
759 159 787 159 32 0 47 -36 78 -190 37 -178 38 -202 16 -221 -9 -8 -107 -33
-218 -55 -110 -23 -187 -42 -171 -43 17 0 50 4 74 10 31 7 47 6 57 -2 11 -9
14 -8 14 5 0 9 8 16 18 16 9 0 26 3 38 6 15 4 24 -1 32 -18 l13 -23 -5 22 c-5
27 -3 28 45 37 34 6 37 4 47 -26 l12 -33 -5 33 c-5 37 9 48 51 38 16 -4 31
-19 39 -39 12 -28 14 -29 15 -9 0 13 -11 33 -23 44 -21 19 -22 24 -11 47 11
22 8 51 -23 201 -20 99 -42 183 -51 193 -10 11 -29 17 -56 16 -23 -1 -207 -35
-411 -76z"/>
<path d="M6213 461 c-18 -11 -39 -34 -48 -50 -19 -37 -68 -427 -51 -410 2 2
14 89 27 192 26 216 36 242 107 267 38 13 46 13 70 -1 15 -8 28 -23 30 -33 4
-16 -2 -17 -62 -11 -48 5 -66 4 -66 -5 0 -16 -39 -338 -45 -378 -3 -17 -2 -32
3 -32 5 0 14 48 20 107 7 60 17 148 24 197 l11 89 24 -27 c18 -21 22 -36 18
-59 -13 -81 -35 -300 -31 -304 3 -3 7 10 10 28 7 37 36 278 36 292 0 9 135 1
173 -9 9 -3 17 -1 17 4 0 5 -31 13 -70 16 -38 4 -70 9 -70 12 0 3 8 16 17 30
14 21 15 31 5 56 l-11 29 67 -5 c49 -4 59 -3 38 4 -16 5 -70 12 -120 15 -80 6
-95 4 -123 -14z m130 -73 c-2 -5 -3 -12 -3 -18 0 -5 -11 -12 -25 -16 -19 -5
-30 0 -45 17 -10 13 -19 26 -20 29 0 3 21 3 48 0 26 -3 46 -8 45 -12z"/>
<path d="M3 454 c5 -5 89 -18 187 -30 104 -12 186 -27 195 -34 11 -9 15 -26
13 -49 -5 -57 -27 -62 -198 -40 -152 19 -243 24 -165 9 22 -4 94 -14 160 -20
66 -7 123 -15 126 -19 4 -3 1 -53 -7 -111 -7 -58 -13 -118 -14 -134 -1 -61 9
-16 25 109 15 123 23 144 52 145 7 0 20 14 29 31 13 25 13 36 4 59 -16 38 -42
47 -200 65 -74 8 -153 18 -175 21 -22 4 -36 2 -32 -2z"/>
<path d="M1820 437 c-52 -10 -96 -20 -98 -22 -5 -4 51 -293 59 -307 6 -9 31
-7 108 7 l101 18 -6 36 c-21 120 -55 276 -62 282 -4 3 -50 -3 -102 -14z m124
-129 c14 -73 26 -140 26 -149 0 -11 -22 -19 -87 -32 -48 -9 -88 -15 -90 -13
-2 1 -16 67 -32 145 -20 100 -25 144 -17 147 25 9 132 32 152 33 19 1 24 -11
48 -131z"/>
<path d="M3363 441 c-46 -21 -68 -52 -59 -85 4 -16 -4 -30 -39 -61 l-44 -40
11 -47 c6 -27 16 -48 21 -48 5 0 6 7 3 16 -17 44 -18 64 -3 64 14 0 120 -20
183 -35 16 -3 25 -17 33 -52 23 -94 42 -155 47 -150 3 3 -6 49 -21 103 l-27
98 49 43 c26 24 64 56 84 73 l36 29 26 -99 c15 -54 27 -105 27 -114 0 -8 -30
-42 -67 -75 -37 -34 -63 -61 -57 -61 5 0 40 28 77 63 l67 62 -32 122 -32 123
-59 11 c-46 9 -60 17 -67 35 -18 47 -85 57 -157 25z m116 -2 c17 -6 31 -17 31
-24 0 -36 -105 -82 -157 -69 -81 20 -26 84 88 103 3 1 20 -4 38 -10z m39 -90
c-2 -24 -11 -36 -38 -50 -39 -21 -120 -25 -138 -7 -24 24 -13 38 31 38 26 0
60 9 87 24 60 31 62 31 58 -5z m98 9 c2 -2 -33 -36 -77 -75 l-81 -70 -101 21
c-56 12 -102 25 -102 30 0 5 12 18 26 28 l26 20 26 -26 c16 -16 37 -26 54 -26
76 0 153 47 153 93 0 23 2 24 36 17 19 -5 37 -10 40 -12z"/>
<path d="M4562 395 c-134 -35 -246 -66 -249 -69 -3 -3 6 -54 21 -113 38 -154
56 -216 62 -210 3 3 -11 69 -32 146 -20 78 -34 144 -31 147 3 3 16 -2 30 -10
19 -13 30 -40 57 -144 18 -70 37 -131 41 -136 12 -13 13 -18 -25 131 l-34 133
37 10 c20 5 126 33 236 61 110 27 207 52 217 55 12 4 18 -4 23 -36 4 -22 11
-42 16 -46 12 -7 11 -2 -2 52 -10 37 -19 49 -54 69 -23 14 -48 25 -56 24 -8 0
-124 -29 -257 -64z m298 35 c31 -23 50 -16 -236 -89 -220 -56 -232 -58 -258
-42 -14 8 -26 18 -26 21 0 4 460 127 485 129 6 0 21 -8 35 -19z"/>
<path d="M1526 380 c-48 -10 -91 -21 -94 -25 -3 -3 7 -75 23 -160 22 -123 32
-155 44 -155 9 0 65 10 124 22 100 19 108 23 103 42 -2 12 -17 83 -32 159 -31
159 -16 148 -168 117z m156 -125 c15 -72 27 -137 28 -146 0 -13 -23 -21 -102
-37 -57 -11 -106 -17 -109 -14 -8 9 -62 283 -56 288 6 7 181 42 197 41 11 -2
22 -38 42 -132z"/>
<path d="M1265 326 c-96 -20 -100 -22 -97 -46 6 -45 53 -275 58 -279 9 -9 3
30 -21 149 -14 68 -25 128 -25 135 0 13 167 51 177 41 5 -4 61 -264 63 -287 0
-3 -35 -12 -77 -19 -43 -8 -71 -16 -64 -18 8 -3 45 1 83 8 53 9 68 16 68 29 0
20 -57 301 -62 305 -1 2 -48 -7 -103 -18z"/>
<path d="M2855 306 c-46 -20 -65 -44 -65 -81 0 -27 -8 -40 -42 -68 l-41 -35
13 -61 c7 -33 17 -61 22 -61 8 0 3 34 -13 76 -4 12 -6 24 -4 26 3 2 51 -5 107
-17 99 -21 109 -26 123 -69 9 -31 15 -12 6 20 -8 28 -4 33 69 98 43 38 81 69
86 70 4 0 12 -15 17 -34 5 -19 12 -29 14 -23 3 7 -1 28 -7 48 -9 27 -19 36
-48 45 -20 5 -44 10 -54 10 -9 0 -25 16 -37 35 -19 32 -24 35 -68 35 -26 -1
-62 -7 -78 -14z m120 -10 c24 -17 15 -40 -27 -66 -41 -25 -141 -25 -146 0 -4
24 20 50 63 65 51 18 86 19 110 1z m29 -103 c-17 -27 -76 -53 -119 -53 -47 0
-60 7 -69 37 -7 21 -5 22 23 17 40 -8 115 13 138 38 17 19 18 19 27 -2 6 -14
6 -27 0 -37z m96 30 c5 -5 -68 -73 -128 -120 l-32 -25 -93 17 c-123 24 -126
26 -83 58 33 26 35 26 41 8 10 -33 66 -45 128 -27 62 18 87 41 87 80 0 26 2
27 38 20 20 -4 39 -9 42 -11z"/>
<path d="M4995 266 c-88 -24 -172 -46 -186 -49 l-27 -7 26 -102 c26 -106 29
-115 37 -107 2 3 -6 44 -19 92 -24 90 -21 101 21 72 15 -10 27 -38 39 -90 10
-41 21 -75 25 -75 4 0 -1 33 -12 72 -10 40 -15 76 -11 79 4 4 87 27 185 52
l178 45 8 -21 c4 -12 18 -65 31 -117 12 -52 27 -99 31 -105 14 -14 11 -1 -24
134 -33 120 -34 124 -73 147 -21 13 -46 24 -54 23 -8 0 -87 -20 -175 -43z
m205 19 c17 -9 30 -19 30 -23 0 -4 -81 -28 -179 -52 -161 -39 -183 -43 -205
-30 -15 7 -26 16 -26 20 0 4 78 27 173 52 94 25 173 46 175 47 2 0 16 -6 32
-14z"/>
<path d="M705 221 c-8 -29 -45 -205 -45 -216 1 -27 19 29 35 110 10 50 21 93
25 98 11 13 125 -18 125 -34 0 -11 -13 -14 -55 -12 -39 2 -49 0 -35 -7 11 -5
29 -9 40 -9 30 -2 46 -16 40 -33 -5 -13 -13 -14 -36 -8 -16 5 -31 5 -34 0 -3
-4 10 -11 29 -14 27 -5 33 -10 29 -25 -4 -16 -12 -19 -41 -15 l-37 4 33 -12
c22 -7 32 -17 32 -31 0 -41 17 -1 33 78 10 44 17 87 17 96 0 10 -22 19 -75 30
-68 14 -75 14 -80 0z"/>
<path d="M6338 233 c7 -3 16 -2 19 1 4 3 -2 6 -13 5 -11 0 -14 -3 -6 -6z"/>
<path d="M3565 200 c-16 -16 -24 -30 -19 -30 6 0 23 14 39 30 16 17 24 30 19
30 -6 0 -23 -13 -39 -30z"/>
<path d="M6398 223 c7 -3 16 -2 19 1 4 3 -2 6 -13 5 -11 0 -14 -3 -6 -6z"/>
<path d="M6460 220 c0 -5 5 -10 10 -10 6 0 10 5 10 10 0 6 -4 10 -10 10 -5 0
-10 -4 -10 -10z"/>
<path d="M45 210 c3 -5 10 -10 16 -10 5 0 9 5 9 10 0 6 -7 10 -16 10 -8 0 -12
-4 -9 -10z"/>
<path d="M5882 204 c-24 -17 -30 -62 -10 -82 15 -15 61 -15 76 0 20 20 14 65
-10 82 -12 9 -25 16 -28 16 -3 0 -16 -7 -28 -16z m58 -19 c15 -18 10 -45 -12
-59 -35 -22 -74 27 -48 59 16 19 44 19 60 0z"/>
<path d="M118 203 c7 -3 16 -2 19 1 4 3 -2 6 -13 5 -11 0 -14 -3 -6 -6z"/>
<path d="M188 193 c7 -3 16 -2 19 1 4 3 -2 6 -13 5 -11 0 -14 -3 -6 -6z"/>
<path d="M4095 170 c-22 -23 -38 -30 -67 -30 -21 0 -38 -2 -38 -5 0 -2 7 -20
16 -39 13 -27 14 -40 6 -65 -6 -17 -7 -31 -2 -31 5 0 14 16 20 35 9 28 9 39
-4 57 -23 32 -20 38 16 38 21 0 41 9 59 26 l28 26 6 -35 c5 -26 14 -38 36 -47
36 -15 36 -23 4 -40 -17 -9 -25 -21 -24 -39 0 -15 3 -19 6 -11 3 8 21 29 40
46 l36 31 -39 19 c-26 13 -41 29 -48 51 -16 45 -19 46 -51 13z"/>
<path d="M248 183 c7 -3 16 -2 19 1 4 3 -2 6 -13 5 -11 0 -14 -3 -6 -6z"/>
<path d="M5475 161 c-3 -5 11 -36 30 -69 19 -33 35 -67 35 -76 0 -9 5 -16 10
-16 6 0 10 6 10 13 0 7 18 31 40 52 l40 39 33 -32 32 -33 -24 -20 c-13 -10
-17 -19 -10 -19 7 0 20 7 29 15 15 14 18 14 30 0 7 -8 17 -15 23 -15 6 0 -15
27 -48 60 -33 33 -68 60 -78 60 -9 0 -40 11 -67 25 -52 27 -75 31 -85 16z m80
-28 c30 -15 55 -30 55 -33 0 -4 -13 -19 -29 -34 l-29 -28 -31 55 c-45 79 -45
79 34 40z"/>
<path d="M2415 130 c-25 -26 -33 -29 -67 -24 -21 4 -38 4 -38 1 0 -3 9 -22 21
-42 12 -19 18 -42 15 -50 -3 -8 -1 -15 4 -15 15 0 12 43 -6 68 -15 21 -14 22
17 22 22 0 42 9 61 27 l27 26 11 -27 c5 -15 10 -31 10 -36 0 -4 15 -13 32 -19
l33 -12 -30 -24 c-39 -32 -24 -32 23 0 l36 25 -41 16 c-34 14 -43 23 -50 52
-11 46 -23 49 -58 12z"/>
<path d="M3586 134 c-15 -14 -26 -27 -24 -29 2 -3 20 9 39 25 19 16 30 29 24
29 -5 0 -23 -11 -39 -25z"/>
<path d="M3216 109 c-58 -14 -96 -45 -96 -80 0 -19 5 -29 15 -29 13 0 13 3 3
19 -25 41 54 86 137 79 35 -3 40 -6 40 -28 0 -20 -10 -30 -45 -48 -38 -19 -41
-22 -18 -22 14 0 37 9 52 21 l26 21 9 -24 c8 -19 10 -20 10 -4 1 16 6 18 38
13 21 -4 39 -11 41 -17 2 -5 12 -10 23 -10 41 0 5 28 -51 39 -48 10 -59 16
-64 35 -5 21 -52 49 -75 45 -3 -1 -23 -5 -45 -10z"/>
<path d="M3045 60 c-16 -16 -24 -30 -19 -30 6 0 23 14 39 30 16 17 24 30 19
30 -6 0 -23 -13 -39 -30z"/>
<path d="M710 10 c0 -6 17 -10 37 -10 43 0 41 5 -4 13 -19 4 -33 2 -33 -3z"/>
<path d="M4050 10 c-22 -7 -21 -8 13 -9 23 -1 36 3 32 9 -7 11 -10 11 -45 0z"/>
</g>
</svg>
